<?xml version="1.0" encoding="UTF-8"?>
<svg id="Layer_2" xmlns="http://www.w3.org/2000/svg" viewBox="0 100 390 489.69">
  <defs>
    <style>
      .cls-1 {
        stroke-miterlimit: 10;
      }

      .cls-1, .cls-2 {
        fill: none;
        stroke: #231f20;
        stroke-width: 13px;
      }

      .cls-3 {
        fill: #828282;
      }

      .cls-2 {
        stroke-linecap: round;
      }

      .cls-4 {
        fill: #fff;
      }
    </style>
  </defs>
  <g>
    <path class="cls-4" d="M269.77,270.06c6.71-11.91,9.49-21.88,10.18-24.46,3.06-11.45,8.55-40.11-5.27-69.77-1.29-2.76-2.74-5.53-4.38-8.3-2.91-4.92-26.03-42.55-68.42-46.49-6.16-.57-12.02-.38-17.51.31-21.62,2.76-37.48,13.48-43.01,17.24-14.11,9.56-22.4,20.73-24.28,23.33-2.02,2.79-7.93,11.28-12.54,23.84-4.15,11.33-5.52,21.24-6.17,29.17-1.01,12.37-1.48,34.74-1.09,64.54.27,20.18.94,43.76,2.11,69.93,22.71-2.85,41.35-6.66,55.12-9.94,14.73-3.5,24.65-6.56,31.01-8.74,1.99-.69,3.63-1.28,4.96-1.78,5.81-2.17,14.33-5.32,24.56-10.53,7.73-3.93,21.58-10.98,33.49-21.63,9.57-8.57,16.42-18.15,21.24-26.72ZM281.28,135.17c39.89,44.32,33.03,108.94,12.37,148.48-23.08,44.16-65.91,61.88-100.02,75.99-7.34,3.03-24.74,7.28-44.42,11.59-20.04,4.4-37.03,7.01-49.27,8.6.24,18.85.61,37.92,1.12,57.19.4,14.9,1.42,44.29,1.42,44.29l-26.97,1.51s-3.68-167.34-3.8-172.93c-.08-3.71-.61-28.14-.79-61.07-.08-14.56-.13-21.83,0-23.65,1.07-14.51,3.73-50.42,29.3-82.24,6.72-8.37,32.12-38.99,76.23-45.53,38.23-5.66,79.05,9.14,104.83,37.77Z"/>
    <path class="cls-3" d="M274.68,175.83c13.82,29.66,8.33,58.32,5.27,69.77-.69,2.58-3.47,12.55-10.18,24.46l-49.59-20.4-.07-46.49,54.57-27.34Z"/>
    <path class="cls-3" d="M274.68,175.83l-54.57,27.34-35.85-19.46.11-62.36c5.49-.69,11.35-.88,17.51-.31,42.39,3.94,65.51,41.57,68.42,46.49,1.64,2.77,3.09,5.54,4.38,8.3Z"/>
    <path class="cls-3" d="M220.18,249.66l49.59,20.4c-4.82,8.57-11.67,18.15-21.24,26.72-11.91,10.65-25.76,17.7-33.49,21.63-10.23,5.21-18.75,8.36-24.56,10.53-1.33.5-2.97,1.09-4.96,1.78v-56.26l.04-.07.31.18,34.31-24.91Z"/>
    <polygon class="cls-4" points="184.26 183.71 220.11 203.17 220.18 249.66 185.87 274.57 185.56 274.39 151.82 255.22 150.87 206.6 183.16 183.11 184.26 183.71"/>
    <path class="cls-3" d="M185.56,274.39l-.04.07v56.26c-6.36,2.18-16.28,5.24-31.01,8.74-13.77,3.28-32.41,7.09-55.12,9.94-1.17-26.17-1.84-49.75-2.11-69.93l54.54-24.25,33.74,19.17Z"/>
    <path class="cls-3" d="M184.37,121.35l-.11,62.36-1.1-.6-32.29,23.49-46.33-20.84c4.61-12.56,10.52-21.05,12.54-23.84,1.88-2.6,10.17-13.77,24.28-23.33,5.53-3.76,21.39-14.48,43.01-17.24Z"/>
    <path class="cls-3" d="M150.87,206.6l.95,48.62-54.54,24.25c-.39-29.8.08-52.17,1.09-64.54.65-7.93,2.02-17.84,6.17-29.17l46.33,20.84Z"/>
  </g>
  <g>
    <path class="cls-1" d="M97.28,279.47c.27,20.18.94,43.76,2.11,69.93,22.71-2.85,41.35-6.66,55.12-9.94,14.73-3.5,24.65-6.56,31.01-8.74,1.99-.69,3.63-1.28,4.96-1.78,5.81-2.17,14.33-5.32,24.56-10.53,7.73-3.93,21.58-10.98,33.49-21.63,9.57-8.57,16.42-18.15,21.24-26.72,6.71-11.91,9.49-21.88,10.18-24.46,3.06-11.45,8.55-40.11-5.27-69.77-1.29-2.76-2.74-5.53-4.38-8.3-2.91-4.92-26.03-42.55-68.42-46.49-6.16-.57-12.02-.38-17.51.31-21.62,2.76-37.48,13.48-43.01,17.24-14.11,9.56-22.4,20.73-24.28,23.33-2.02,2.79-7.93,11.28-12.54,23.84-4.15,11.33-5.52,21.24-6.17,29.17-1.01,12.37-1.48,34.74-1.09,64.54Z"/>
    <polygon class="cls-1" points="151.82 255.22 185.56 274.39 185.87 274.57 220.18 249.66 220.11 203.17 184.26 183.71 183.16 183.11 150.87 206.6 151.82 255.22"/>
    <line class="cls-1" x1="274.68" y1="175.83" x2="220.11" y2="203.17"/>
    <polyline class="cls-1" points="184.26 184.41 184.26 183.71 184.37 121.35 184.37 120.7"/>
    <line class="cls-1" x1="150.87" y1="206.6" x2="104.54" y2="185.76"/>
    <polyline class="cls-1" points="97.17 279.52 97.28 279.47 151.82 255.22"/>
    <polyline class="cls-1" points="185.52 274.46 185.52 330.72 185.52 332.7"/>
    <polyline class="cls-1" points="220.18 249.66 269.77 270.06 270.39 270.31"/>
    <path class="cls-2" d="M75.51,482.82s-3.68-167.34-3.8-172.93c-.08-3.71-.61-28.14-.79-61.07-.08-14.56-.13-21.83,0-23.65,1.07-14.51,3.73-50.42,29.3-82.24,6.72-8.37,32.12-38.99,76.23-45.53,38.23-5.66,79.05,9.14,104.83,37.77,39.89,44.32,33.03,108.94,12.37,148.48-23.08,44.16-65.91,61.88-100.02,75.99-7.34,3.03-24.74,7.28-44.42,11.59-20.04,4.4-37.03,7.01-49.27,8.6.24,18.85.61,37.92,1.12,57.19.4,14.9,1.42,44.29,1.42,44.29l-26.97,1.51Z"/>
  </g>
</svg>